<svg xmlns="http://www.w3.org/2000/svg" viewBox="0 0 1394.22 439.43"><defs><style>.cls-1{fill:#0083cb;}</style></defs><g id="Camada_2" data-name="Camada 2"><g id="Camada_1-2" data-name="Camada 1"><path class="cls-1" d="M643.4,125.26a9.74,9.74,0,0,1,5.59,7.52,11.29,11.29,0,0,1-2.66,9.34,8.33,8.33,0,0,1-6.13,3.67,14.33,14.33,0,0,1-7.61-1.47,47.24,47.24,0,0,0-9.25-3.11,45.55,45.55,0,0,0-10.17-1.1,47.48,47.48,0,0,0-17.69,3.11,37.09,37.09,0,0,0-13.28,8.89,38.49,38.49,0,0,0-8.34,13.65A51.11,51.11,0,0,0,571,183.17a53.43,53.43,0,0,0,3.21,19.42,37.85,37.85,0,0,0,8.89,13.75,35.71,35.71,0,0,0,13.37,8.15,50.82,50.82,0,0,0,16.68,2.66,54.26,54.26,0,0,0,9.89-.92,33.83,33.83,0,0,0,9.53-3.3,13,13,0,0,1,7.61-1.28,9.61,9.61,0,0,1,6.32,3.85q3.66,4.58,2.66,9.43a9.7,9.7,0,0,1-5.59,7.06,64.62,64.62,0,0,1-9.81,3.94,74.19,74.19,0,0,1-10.17,2.38,65.65,65.65,0,0,1-10.44.83,73.93,73.93,0,0,1-25-4.22,63.39,63.39,0,0,1-21.07-12.46,57.74,57.74,0,0,1-14.57-20.61q-5.31-12.37-5.31-28.68a68.21,68.21,0,0,1,4.86-26,60.34,60.34,0,0,1,13.74-20.62,63.42,63.42,0,0,1,21-13.56,70.32,70.32,0,0,1,26.39-4.85A67.92,67.92,0,0,1,628.93,120,64,64,0,0,1,643.4,125.26Z"/><path class="cls-1" d="M690.5,236.13a11,11,0,0,1-11.18,11.17,10.29,10.29,0,0,1-7.7-3.2,11,11,0,0,1-3.11-8V122.88a11,11,0,0,1,11.17-11.18,10.21,10.21,0,0,1,7.79,3.21,11.17,11.17,0,0,1,3,8Z"/><path class="cls-1" d="M725.68,137.36q-6.24,0-8.8-2t-2.57-7.14v-3.49q0-5.31,2.84-7.23t8.71-1.93c4.27,0,7.27.67,9,2s2.56,3.73,2.56,7.14v3.49q0,5.31-2.74,7.23T725.68,137.36Zm11.17,98.77a11,11,0,0,1-3.11,8,11.3,11.3,0,0,1-15.76,0,11,11,0,0,1-3.12-8V160.45a11,11,0,0,1,3.12-8,11.28,11.28,0,0,1,15.76,0,11,11,0,0,1,3.11,8Z"/><path class="cls-1" d="M811.8,147.44q13.56,0,20.61,5.68a28.92,28.92,0,0,1,9.72,15.11,77.48,77.48,0,0,1,2.65,21v46.91a11,11,0,0,1-3.11,8,11.3,11.3,0,0,1-15.76,0,11,11,0,0,1-3.12-8V189.22a35.89,35.89,0,0,0-1.55-10.91,15.17,15.17,0,0,0-5.59-7.79q-4-2.93-11.55-2.93a24.3,24.3,0,0,0-12.37,2.93,20.11,20.11,0,0,0-7.69,7.79,22.36,22.36,0,0,0-2.66,10.91v46.91a11,11,0,0,1-3.11,8,11.3,11.3,0,0,1-15.76,0,11,11,0,0,1-3.12-8V160.45a11,11,0,0,1,3.12-8,11.28,11.28,0,0,1,15.76,0,11,11,0,0,1,3.11,8v7.88l-2.75-.55a36,36,0,0,1,4.77-6.69,45.25,45.25,0,0,1,7.33-6.69,36.91,36.91,0,0,1,9.52-5A33.81,33.81,0,0,1,811.8,147.44Z"/><path class="cls-1" d="M878.13,137.36q-6.23,0-8.79-2c-1.72-1.34-2.57-3.72-2.57-7.14v-3.49q0-5.31,2.84-7.23t8.71-1.93q6.4,0,9,2c1.71,1.34,2.57,3.73,2.57,7.14v3.49q0,5.31-2.75,7.23C885.28,136.72,882.28,137.36,878.13,137.36Zm11.18,98.77a11,11,0,0,1-3.12,8,11.3,11.3,0,0,1-15.76,0,11,11,0,0,1-3.11-8V160.45a11,11,0,0,1,3.11-8,11.28,11.28,0,0,1,15.76,0,11,11,0,0,1,3.12,8Z"/><path class="cls-1" d="M955.46,147.44a67.7,67.7,0,0,1,18.23,2.19q7.78,2.2,12.09,6.14a12.38,12.38,0,0,1,4.31,9.44,11.86,11.86,0,0,1-2.2,6.87,7.27,7.27,0,0,1-6.41,3.21,12.4,12.4,0,0,1-4.86-.83,12.91,12.91,0,0,1-3.39-2.1,19.65,19.65,0,0,0-3.48-2.39,16.9,16.9,0,0,0-5.59-1.74,37.69,37.69,0,0,0-5.59-.64q-9.35,0-15.85,4a26.93,26.93,0,0,0-10,10.91,34.48,34.48,0,0,0-3.49,15.85A33.47,33.47,0,0,0,932.83,214,28,28,0,0,0,942.72,225a26.5,26.5,0,0,0,14.57,4,48.35,48.35,0,0,0,7.88-.55,19.8,19.8,0,0,0,5.5-1.65,33.94,33.94,0,0,0,4.58-3.12q2-1.64,6-1.64a9.05,9.05,0,0,1,7.32,3,11.07,11.07,0,0,1,2.57,7.42q0,4.59-5.13,8.34a41.33,41.33,0,0,1-13.47,6,68.21,68.21,0,0,1-18.05,2.29q-14.47,0-25.1-6.69A44.69,44.69,0,0,1,913,224.21a56.89,56.89,0,0,1-5.77-25.83q0-15,6.13-26.48a45.64,45.64,0,0,1,17.05-18A47.89,47.89,0,0,1,955.46,147.44Z"/><path class="cls-1" d="M1072,119a11,11,0,0,1,7.79,3.21,10.54,10.54,0,0,1,3.39,8V236.13a10.42,10.42,0,0,1-3.49,8,11.51,11.51,0,0,1-8.06,3.2,10.82,10.82,0,0,1-11.36-11.17V130.21a10.68,10.68,0,0,1,3.3-8A11.59,11.59,0,0,1,1072,119Zm-.55,53.33h81.73v21.07h-81.73ZM1153.18,119a10.84,10.84,0,0,1,11.36,11.18V236.13a10.83,10.83,0,0,1-3.21,8,11.51,11.51,0,0,1-8.52,3.2,11,11,0,0,1-7.79-3.2,10.54,10.54,0,0,1-3.39-8V130.21a10.41,10.41,0,0,1,3.48-8A11.54,11.54,0,0,1,1153.18,119Z"/><path class="cls-1" d="M1262.94,149.27a10.53,10.53,0,0,1,7.88,3.21,11,11,0,0,1,3.11,8V207q0,19.42-10.81,30.78T1232,249.14q-20.34,0-31.06-11.37T1190.19,207V160.45a11,11,0,0,1,3.11-8,11.28,11.28,0,0,1,15.76,0,11,11,0,0,1,3.12,8V207q0,11.17,5,16.58T1232,229q10.08,0,15-5.41t5-16.58V160.45a11,11,0,0,1,3.12-8A10.5,10.5,0,0,1,1262.94,149.27Z"/><path class="cls-1" d="M1348.51,147.44a41.83,41.83,0,0,1,23,6.5,46.14,46.14,0,0,1,16.12,17.87q6,11.35,6,26.38t-6,26.48a46.44,46.44,0,0,1-15.94,18,40.22,40.22,0,0,1-22.45,6.51,39.1,39.1,0,0,1-13.74-2.39,43.82,43.82,0,0,1-11.27-6,34.79,34.79,0,0,1-7.51-7.42c-1.77-2.51-2.66-4.61-2.66-6.33l5.68-2.38V238a11,11,0,0,1-3.11,8,11.39,11.39,0,0,1-15.76.09,10.9,10.9,0,0,1-3.12-8.06V122.88a11,11,0,0,1,3.12-8,11.28,11.28,0,0,1,15.76,0,11,11,0,0,1,3.11,8v46.55l-3.11-1.65c0-1.59.85-3.51,2.56-5.78a37.27,37.27,0,0,1,7-6.78,40.06,40.06,0,0,1,10.17-5.59A34.07,34.07,0,0,1,1348.51,147.44Zm-2.75,20.15a24.88,24.88,0,0,0-14.11,4,27.32,27.32,0,0,0-9.43,10.91,34.8,34.8,0,0,0-3.4,15.66,35.54,35.54,0,0,0,3.4,15.67,27,27,0,0,0,9.43,11.09,24.81,24.81,0,0,0,14.11,4,24.38,24.38,0,0,0,14-4,27.33,27.33,0,0,0,9.34-11.09,35.68,35.68,0,0,0,3.4-15.67,34.94,34.94,0,0,0-3.4-15.66,27.66,27.66,0,0,0-9.34-10.91A24.46,24.46,0,0,0,1345.76,167.59Z"/><path class="cls-1" d="M559,314.08a8.25,8.25,0,0,1,4.27,1.1,8,8,0,0,1,2.93,3,9,9,0,0,1,1.08,4.44,9.3,9.3,0,0,1-1.08,4.5,8.3,8.3,0,0,1-2.93,3.17,7.83,7.83,0,0,1-4.27,1.16h-9.13l.22-.43v11.89a1.33,1.33,0,0,1-1.3,1.3,1.19,1.19,0,0,1-.94-.39,1.33,1.33,0,0,1-.35-.91V315.37a1.33,1.33,0,0,1,1.29-1.29Zm0,14.9a5.12,5.12,0,0,0,2.93-.84,5.67,5.67,0,0,0,2-2.28,7.07,7.07,0,0,0,.71-3.21,6.53,6.53,0,0,0-.71-3.12,5.24,5.24,0,0,0-2-2.13,5.41,5.41,0,0,0-2.93-.78h-9.13l.22-.39v13l-.26-.26Z"/><path class="cls-1" d="M606,317.4l-10.47,26a1.38,1.38,0,0,1-.47.64,1.12,1.12,0,0,1-.69.22,1.19,1.19,0,0,1-.9-.32,1.28,1.28,0,0,1-.35-.8,1.2,1.2,0,0,1,0-.52l11.38-27.83a1.29,1.29,0,0,1,1.29-.86,1.2,1.2,0,0,1,.75.24,1.47,1.47,0,0,1,.5.62l11.33,27.7a1.57,1.57,0,0,1,.08.52,1.14,1.14,0,0,1-.38.93,1.4,1.4,0,0,1-.91.32,1.22,1.22,0,0,1-.75-.24,1.6,1.6,0,0,1-.5-.62l-10.72-26.2Zm-8,18.13,1.08-2.54h13.35l.52,2.54Z"/><path class="cls-1" d="M656.51,344.67a13.51,13.51,0,0,1-5.69-1,15.68,15.68,0,0,1-4.61-3.23,1.56,1.56,0,0,1-.37-.43,1.16,1.16,0,0,1-.15-.6,1.36,1.36,0,0,1,.41-.95A1.25,1.25,0,0,1,647,338a1.32,1.32,0,0,1,1,.43,11.69,11.69,0,0,0,3.81,2.76,11.19,11.19,0,0,0,4.59.94,9.86,9.86,0,0,0,3.68-.64,6,6,0,0,0,2.56-1.85,4.43,4.43,0,0,0,1-2.8,4.67,4.67,0,0,0-1.08-3.21,8.06,8.06,0,0,0-2.84-2,31.67,31.67,0,0,0-3.92-1.44,31.55,31.55,0,0,1-3.36-1.19,12.46,12.46,0,0,1-2.84-1.63,6.65,6.65,0,0,1-1.94-2.4,7.78,7.78,0,0,1-.69-3.44,7,7,0,0,1,1.21-4.05,8,8,0,0,1,3.42-2.78,12.23,12.23,0,0,1,5.15-1,14.22,14.22,0,0,1,4.89.86,8.38,8.38,0,0,1,3.72,2.54,1.92,1.92,0,0,1,.65,1.25,1.21,1.21,0,0,1-.43.86,1.31,1.31,0,0,1-1,.43,1,1,0,0,1-.73-.3,7.69,7.69,0,0,0-1.85-1.61,9.27,9.27,0,0,0-2.48-1.1,10.72,10.72,0,0,0-6.46.23,5.87,5.87,0,0,0-2.54,1.79,4.36,4.36,0,0,0-.93,2.8,4.28,4.28,0,0,0,1,3,7.83,7.83,0,0,0,2.72,1.92c1.12.5,2.31,1,3.57,1.4a37.13,37.13,0,0,1,3.56,1.19,12.1,12.1,0,0,1,3,1.66,7,7,0,0,1,2.07,2.49,8.51,8.51,0,0,1,.76,3.8,6.73,6.73,0,0,1-1.25,4,8.68,8.68,0,0,1-3.43,2.8A12.2,12.2,0,0,1,656.51,344.67Z"/><path class="cls-1" d="M705.14,344.67a13.5,13.5,0,0,1-5.68-1,15.55,15.55,0,0,1-4.61-3.23,1.41,1.41,0,0,1-.37-.43,1.16,1.16,0,0,1-.15-.6,1.36,1.36,0,0,1,.41-.95,1.23,1.23,0,0,1,.93-.43,1.29,1.29,0,0,1,.94.43,11.62,11.62,0,0,0,3.82,2.76,11.17,11.17,0,0,0,4.58.94,9.91,9.91,0,0,0,3.69-.64,6.06,6.06,0,0,0,2.56-1.85,4.43,4.43,0,0,0,1-2.8,4.67,4.67,0,0,0-1.08-3.21,8.15,8.15,0,0,0-2.84-2,32.28,32.28,0,0,0-3.92-1.44A31.55,31.55,0,0,1,701,329a12.75,12.75,0,0,1-2.85-1.63,6.62,6.62,0,0,1-1.93-2.4,7.78,7.78,0,0,1-.69-3.44,7,7,0,0,1,1.2-4.05,8.09,8.09,0,0,1,3.43-2.78,12.2,12.2,0,0,1,5.15-1,14.22,14.22,0,0,1,4.89.86,8.44,8.44,0,0,1,3.72,2.54,2,2,0,0,1,.65,1.25,1.25,1.25,0,0,1-.43.86,1.32,1.32,0,0,1-.95.43,1,1,0,0,1-.73-.3,7.69,7.69,0,0,0-1.85-1.61,9.41,9.41,0,0,0-2.48-1.1,10.72,10.72,0,0,0-6.46.23,6,6,0,0,0-2.55,1.79,4.41,4.41,0,0,0-.92,2.8,4.28,4.28,0,0,0,1,3,7.83,7.83,0,0,0,2.72,1.92c1.12.5,2.31,1,3.57,1.4a37.13,37.13,0,0,1,3.56,1.19,12.28,12.28,0,0,1,3,1.66,7,7,0,0,1,2.07,2.49,8.52,8.52,0,0,1,.75,3.8,6.66,6.66,0,0,1-1.25,4,8.57,8.57,0,0,1-3.42,2.8A12.21,12.21,0,0,1,705.14,344.67Z"/><path class="cls-1" d="M748.18,342.9a1.44,1.44,0,0,1-.45,1,1.3,1.3,0,0,1-.93.39,1.28,1.28,0,0,1-1-.39,1.36,1.36,0,0,1-.36-1V315.41a1.28,1.28,0,0,1,.39-.94,1.31,1.31,0,0,1,1-.39,1.3,1.3,0,0,1,.92.39,1.22,1.22,0,0,1,.41.94Z"/><path class="cls-1" d="M807.55,329.16a17.46,17.46,0,0,1-1.06,6.22,14.66,14.66,0,0,1-3,4.91,13.28,13.28,0,0,1-4.59,3.23,15.18,15.18,0,0,1-11.59,0,13.38,13.38,0,0,1-4.59-3.23,14.66,14.66,0,0,1-3-4.91,18.81,18.81,0,0,1,0-12.45,14.66,14.66,0,0,1,3-4.91,13.51,13.51,0,0,1,4.59-3.23,15.3,15.3,0,0,1,11.59,0A13.42,13.42,0,0,1,803.5,318a14.66,14.66,0,0,1,3,4.91A17.52,17.52,0,0,1,807.55,329.16Zm-2.76,0a14.46,14.46,0,0,0-1.49-6.74,11.39,11.39,0,0,0-20.37,0,16,16,0,0,0,0,13.48,11.39,11.39,0,0,0,20.37,0A14.52,14.52,0,0,0,804.79,329.16Z"/><path class="cls-1" d="M860.15,314.08a1.14,1.14,0,0,1,.88.34,1.2,1.2,0,0,1,.33.86v27.58a1.29,1.29,0,0,1-.41,1,1.39,1.39,0,0,1-.93.37,1.73,1.73,0,0,1-.56-.11,1,1,0,0,1-.47-.33l-19.22-25.89.73-.38v25.54a1.11,1.11,0,0,1-.34.82,1.18,1.18,0,0,1-.86.35,1.16,1.16,0,0,1-1.21-1.17v-27.7a1.19,1.19,0,0,1,.39-1,1.35,1.35,0,0,1,.86-.32,1.5,1.5,0,0,1,.56.11,1,1,0,0,1,.48.36l19,25.59-.43.78V315.28a1.16,1.16,0,0,1,.37-.86A1.17,1.17,0,0,1,860.15,314.08Z"/><path class="cls-1" d="M904,317.4l-10.47,26a1.38,1.38,0,0,1-.47.64,1.12,1.12,0,0,1-.69.22,1.19,1.19,0,0,1-.9-.32,1.33,1.33,0,0,1-.35-.8,1.2,1.2,0,0,1,0-.52l11.38-27.83a1.29,1.29,0,0,1,1.29-.86,1.2,1.2,0,0,1,.75.24,1.47,1.47,0,0,1,.5.62l11.33,27.7a1.58,1.58,0,0,1,.09.52,1.15,1.15,0,0,1-.39.93,1.4,1.4,0,0,1-.91.32,1.22,1.22,0,0,1-.75-.24,1.6,1.6,0,0,1-.5-.62l-10.72-26.2Zm-8,18.13,1.08-2.54h13.35l.52,2.54Z"/><path class="cls-1" d="M942.74,316.53a1.32,1.32,0,0,1-.91-.34,1.15,1.15,0,0,1-.39-.91,1.11,1.11,0,0,1,.39-.86,1.32,1.32,0,0,1,.91-.34h20.5a1.32,1.32,0,0,1,.91.34,1.14,1.14,0,0,1,.38.91,1.08,1.08,0,0,1-.38.88,1.35,1.35,0,0,1-.91.32ZM953,344.24a1.27,1.27,0,0,1-1-.39,1.3,1.3,0,0,1-.37-.91V315.5h2.67v27.44a1.27,1.27,0,0,1-.38.91A1.3,1.3,0,0,1,953,344.24Z"/><path class="cls-1" d="M995.77,314.08h15.81a1.24,1.24,0,0,1,.9.37,1.2,1.2,0,0,1,.39.92,1.13,1.13,0,0,1-.39.9,1.26,1.26,0,0,1-.9.35H996.76l.43-.73V328l-.47-.56h12.92a1.2,1.2,0,0,1,.9.39,1.24,1.24,0,0,1,.39.91,1.14,1.14,0,0,1-.39.9,1.29,1.29,0,0,1-.9.35H996.8l.39-.43V342l-.22-.26h14.61a1.22,1.22,0,0,1,.9.39,1.24,1.24,0,0,1,.39.91,1.14,1.14,0,0,1-.39.9,1.3,1.3,0,0,1-.9.35H995.77a1.24,1.24,0,0,1-.91-.39,1.27,1.27,0,0,1-.38-.91V315.37a1.27,1.27,0,0,1,.38-.9A1.24,1.24,0,0,1,995.77,314.08Z"/><path class="cls-1" d="M1078.27,316.53a1.32,1.32,0,0,1-.91-.34,1.18,1.18,0,0,1-.38-.91,1.13,1.13,0,0,1,.38-.86,1.32,1.32,0,0,1,.91-.34h20.5a1.32,1.32,0,0,1,.91.34,1.15,1.15,0,0,1,.39.91,1.09,1.09,0,0,1-.39.88,1.35,1.35,0,0,1-.91.32Zm10.25,27.71a1.28,1.28,0,0,1-1-.39,1.29,1.29,0,0,1-.36-.91V315.5h2.67v27.44a1.24,1.24,0,0,1-.39.91A1.3,1.3,0,0,1,1088.52,344.24Z"/><path class="cls-1" d="M1156,329.16a17.46,17.46,0,0,1-1.06,6.22,14.66,14.66,0,0,1-3,4.91,13.28,13.28,0,0,1-4.59,3.23,15.18,15.18,0,0,1-11.59,0,13.34,13.34,0,0,1-4.58-3.23,14.52,14.52,0,0,1-3-4.91,19,19,0,0,1,0-12.45,14.52,14.52,0,0,1,3-4.91,13.47,13.47,0,0,1,4.58-3.23,15.3,15.3,0,0,1,11.59,0A13.42,13.42,0,0,1,1152,318a14.66,14.66,0,0,1,3,4.91A17.52,17.52,0,0,1,1156,329.16Zm-2.76,0a14.58,14.58,0,0,0-1.48-6.74,11.4,11.4,0,0,0-20.38,0,16,16,0,0,0,0,13.48,11.4,11.4,0,0,0,20.38,0A14.64,14.64,0,0,0,1153.27,329.16Z"/><path class="cls-1" d="M1224.14,314.08a1.34,1.34,0,0,1,.93.39,1.26,1.26,0,0,1,.41.94V342.9a1.41,1.41,0,0,1-.46,1,1.3,1.3,0,0,1-.92.39,1.27,1.27,0,0,1-1-.39,1.32,1.32,0,0,1-.37-1V315.41a1.28,1.28,0,0,1,.39-.94A1.34,1.34,0,0,1,1224.14,314.08Zm-.22,13.48h20.47l0,2.5h-20.6Zm20.43-13.48a1.28,1.28,0,0,1,1,.39,1.33,1.33,0,0,1,.36.94V342.9a1.5,1.5,0,0,1-.41,1,1.27,1.27,0,0,1-1,.39,1.3,1.3,0,0,1-1-.39,1.33,1.33,0,0,1-.38-1V315.41a1.22,1.22,0,0,1,.41-.94A1.34,1.34,0,0,1,1244.35,314.08Z"/><path class="cls-1" d="M1279.5,314.08h15.81a1.26,1.26,0,0,1,.91.37,1.23,1.23,0,0,1,.38.92,1.16,1.16,0,0,1-.38.9,1.28,1.28,0,0,1-.91.35h-14.82l.43-.73V328l-.47-.56h12.92a1.31,1.31,0,0,1,1.29,1.3,1.14,1.14,0,0,1-.38.9,1.33,1.33,0,0,1-.91.35h-12.84l.39-.43V342l-.21-.26h14.6a1.24,1.24,0,0,1,.91.39,1.27,1.27,0,0,1,.38.91,1.17,1.17,0,0,1-.38.9,1.33,1.33,0,0,1-.91.35H1279.5a1.26,1.26,0,0,1-.91-.39,1.27,1.27,0,0,1-.38-.91V315.37a1.32,1.32,0,0,1,1.29-1.29Z"/><path class="cls-1" d="M1343.78,341.69a1.3,1.3,0,0,1,.9.37,1.16,1.16,0,0,1,.39.88,1.21,1.21,0,0,1-.39.93,1.3,1.3,0,0,1-.9.37H1328.4a1.21,1.21,0,0,1-.93-.39,1.3,1.3,0,0,1-.37-.91V315.37a1.24,1.24,0,0,1,.39-.9,1.34,1.34,0,0,1,1-.39,1.3,1.3,0,0,1,.93.39,1.22,1.22,0,0,1,.41.9v27.06l-.82-.74Z"/><path class="cls-1" d="M1386,314.08a8.25,8.25,0,0,1,4.27,1.1,8,8,0,0,1,2.93,3,9.11,9.11,0,0,1,1.07,4.44,9.41,9.41,0,0,1-1.07,4.5,8.3,8.3,0,0,1-2.93,3.17,7.83,7.83,0,0,1-4.27,1.16h-9.13l.21-.43v11.89a1.31,1.31,0,0,1-1.29,1.3,1.21,1.21,0,0,1-1-.39,1.32,1.32,0,0,1-.34-.91V315.37a1.33,1.33,0,0,1,1.29-1.29Zm0,14.9a5.12,5.12,0,0,0,2.93-.84,5.74,5.74,0,0,0,2-2.28,7.07,7.07,0,0,0,.71-3.21,6.53,6.53,0,0,0-.71-3.12,5.31,5.31,0,0,0-2-2.13,5.41,5.41,0,0,0-2.93-.78h-9.13l.21-.39v13l-.25-.26Z"/><rect class="cls-1" x="448.58" width="6.1" height="439.43" rx="2"/><circle class="cls-1" cx="264.29" cy="96.01" r="38.54"/><circle class="cls-1" cx="264.29" cy="349.29" r="38.54"/><path class="cls-1" d="M341.38,184.11a38.55,38.55,0,0,0-34.71,21.76H256.79A71.28,71.28,0,0,0,170.88,153L149,115.18a38.51,38.51,0,1,0-33.4,19.38h.08l21.38,37a71.48,71.48,0,0,0-19.47,34.55H73.33a38.54,38.54,0,1,0-3.18,38.55h49a71.53,71.53,0,0,0,21.8,32.52l-25.49,33.56a38.61,38.61,0,1,0,33.64,19.43L177,293.42a70.92,70.92,0,0,0,79-50.93h52.35a38.54,38.54,0,1,0,33.05-58.38ZM187.21,261.2a38.55,38.55,0,1,1,38.54-38.55A38.53,38.53,0,0,1,187.21,261.2Z"/></g></g></svg>