<?xml version="1.0" standalone="no"?>
<!DOCTYPE svg PUBLIC "-//W3C//DTD SVG 20010904//EN"
 "http://www.w3.org/TR/2001/REC-SVG-20010904/DTD/svg10.dtd">
<svg version="1.0" xmlns="http://www.w3.org/2000/svg"
 width="932.000000pt" height="932.000000pt" viewBox="0 0 932.000000 932.000000"
 preserveAspectRatio="xMidYMid meet">
<metadata>
Created by potrace 1.14, written by Peter Selinger 2001-2017
</metadata>
<g transform="translate(0.000000,932.000000) scale(0.100000,-0.100000)"
fill="#000000" stroke="none">
<path d="M2755 8709 c-398 -33 -730 -314 -837 -709 -30 -114 -33 -337 -4 -450
44 -173 126 -321 246 -441 95 -95 137 -128 230 -176 111 -56 200 -88 280 -98
25 -3 54 -8 65 -10 11 -2 39 -4 62 -4 38 -1 43 -4 65 -43 39 -69 247 -429 353
-613 54 -93 109 -188 122 -211 l23 -40 -40 -42 c-126 -135 -216 -264 -295
-421 -51 -102 -135 -329 -135 -364 0 -12 -9 -17 -32 -17 -41 -1 -934 -1 -1005
0 l-52 0 -37 63 c-116 198 -301 351 -509 422 -27 9 -57 18 -65 20 -8 2 -37 9
-65 15 -131 30 -328 17 -475 -31 -324 -106 -556 -370 -636 -722 -12 -52 -15
-238 -6 -302 14 -89 18 -107 38 -169 107 -326 376 -564 719 -637 65 -13 266
-17 330 -5 240 43 439 162 599 356 l29 35 599 1 c540 1 600 -1 605 -15 78
-246 247 -513 451 -708 l75 -72 -85 -113 c-47 -62 -132 -174 -188 -248 -57
-74 -157 -206 -222 -292 -65 -86 -122 -159 -126 -162 -5 -3 -39 -8 -76 -11
-369 -29 -695 -282 -814 -631 -79 -232 -65 -490 39 -712 85 -183 229 -335 411
-435 59 -33 198 -82 258 -92 25 -4 54 -9 65 -11 32 -6 206 -5 255 1 417 58
756 404 806 822 21 176 -12 377 -86 524 l-31 60 108 142 c59 78 128 169 153
202 25 33 131 171 234 308 l187 247 82 -7 c138 -13 418 -5 446 11 3 2 27 7 53
10 25 4 94 20 153 37 445 127 818 421 1046 824 60 106 85 161 128 280 l36 100
638 -1 638 -1 35 -51 c175 -261 483 -416 809 -407 397 11 749 275 868 651 35
111 38 133 42 274 4 154 -5 215 -54 349 -118 323 -414 561 -756 609 -65 9
-206 8 -270 -1 -242 -37 -442 -154 -612 -359 -12 -15 -41 -58 -64 -97 l-41
-69 -609 0 c-362 0 -609 3 -609 9 0 17 -2 24 -45 144 -37 105 -102 250 -138
310 -120 198 -236 336 -400 473 -269 225 -596 364 -942 400 -165 17 -455 0
-566 -34 -13 -3 -44 43 -133 198 -65 112 -121 210 -126 218 -48 79 -90 153
-90 155 0 3 -109 191 -130 225 -5 8 -23 41 -40 72 l-30 57 29 58 c79 155 113
389 82 558 -17 92 -18 95 -44 172 -96 281 -351 516 -643 593 -117 30 -210 39
-329 29z m1957 -3113 c30 -4 70 -11 87 -16 17 -5 32 -8 34 -8 8 4 123 -40 181
-69 261 -129 446 -372 507 -668 13 -65 17 -246 6 -310 -26 -156 -66 -259 -153
-391 -190 -288 -553 -455 -894 -411 -372 48 -674 299 -789 657 -91 284 -28
629 157 860 213 266 527 395 864 356z"/>
<path d="M6457 8714 c-1 -1 -31 -4 -67 -7 -78 -8 -107 -13 -180 -34 -50 -14
-211 -86 -235 -105 -5 -4 -44 -34 -85 -66 -41 -32 -90 -77 -108 -100 -18 -22
-44 -53 -57 -68 -38 -45 -105 -168 -131 -244 -71 -203 -75 -400 -13 -602 96
-316 348 -556 672 -640 66 -18 111 -22 232 -22 156 0 215 10 335 56 310 119
539 397 598 723 14 80 7 296 -12 375 -55 223 -194 434 -361 548 -22 15 -42 30
-45 33 -22 26 -190 99 -285 124 -47 13 -250 35 -258 29z"/>
<path d="M6340 2490 c-19 -4 -50 -10 -69 -14 -56 -11 -150 -45 -215 -78 -356
-178 -562 -570 -511 -972 40 -310 246 -592 534 -728 83 -39 191 -72 274 -83
67 -9 245 -5 296 6 25 6 55 12 65 15 43 8 124 38 181 66 164 80 280 182 379
333 66 101 101 184 131 310 21 84 24 119 21 225 -4 139 -8 167 -37 258 -81
259 -261 467 -504 582 -123 59 -223 81 -375 85 -74 1 -151 -1 -170 -5z"/>
</g>
</svg>
