<svg xmlns="http://www.w3.org/2000/svg" viewBox="0 0 932 810.43"><defs><style>.cls-1{fill:#0083cb;}</style></defs><g id="Camada_2" data-name="Camada 2"><g id="Camada_1-2" data-name="Camada 1"><circle class="cls-1" cx="648.35" cy="94.55" r="94.55"/><circle class="cls-1" cx="648.35" cy="715.88" r="94.55"/><path class="cls-1" d="M837.45,310.67A94.56,94.56,0,0,0,752.31,364H629.94c-18.53-77.1-87.9-134.42-170.69-134.42a175.79,175.79,0,0,0-40.07,4.77L365.6,141.58a94.5,94.5,0,1,0-82,47.52h.2l52.45,90.85a175.21,175.21,0,0,0-47.76,84.76H179.88a94.52,94.52,0,1,0-7.8,94.55H292.21A175.61,175.61,0,0,0,345.7,539l-62.53,82.33A94.68,94.68,0,1,0,365.7,669l68.5-90.2A174,174,0,0,0,628,453.88H756.37a94.55,94.55,0,1,0,81.08-143.21Zm-378.2,189.1a94.55,94.55,0,1,1,94.55-94.55A94.48,94.48,0,0,1,459.25,499.77Z"/></g></g></svg>