<svg xmlns="http://www.w3.org/2000/svg" viewBox="0 0 946.42 730.61"><defs><style>.cls-1{fill:#0083cb;}</style></defs><g id="Camada_2" data-name="Camada 2"><g id="Camada_1-2" data-name="Camada 1"><path class="cls-1" d="M107.49,485.46a10.91,10.91,0,0,1,6.25,8.4,12.64,12.64,0,0,1-3,10.44,9.31,9.31,0,0,1-6.86,4.09,15.91,15.91,0,0,1-8.5-1.63,52,52,0,0,0-10.34-3.48,51.24,51.24,0,0,0-11.36-1.23A52.86,52.86,0,0,0,54,505.53a41.41,41.41,0,0,0-14.84,9.93,42.91,42.91,0,0,0-9.32,15.25,56.93,56.93,0,0,0-3.17,19.45,59.79,59.79,0,0,0,3.58,21.71,42.37,42.37,0,0,0,9.93,15.35,39.71,39.71,0,0,0,14.95,9.11,56.68,56.68,0,0,0,18.63,3,60.94,60.94,0,0,0,11.06-1,37.7,37.7,0,0,0,10.64-3.69,14.59,14.59,0,0,1,8.5-1.43,10.72,10.72,0,0,1,7.06,4.3q4.09,5.12,3,10.54a10.8,10.8,0,0,1-6.24,7.89,72.28,72.28,0,0,1-11,4.4A82.38,82.38,0,0,1,85.38,623a73.89,73.89,0,0,1-11.67.92,82.56,82.56,0,0,1-27.95-4.71,70.8,70.8,0,0,1-23.54-13.92,64.29,64.29,0,0,1-16.28-23Q0,568.38,0,550.16a76.21,76.21,0,0,1,5.43-29.07,67.51,67.51,0,0,1,15.35-23A70.92,70.92,0,0,1,44.23,482.9a78.49,78.49,0,0,1,29.48-5.42,75.59,75.59,0,0,1,17.61,2A71.44,71.44,0,0,1,107.49,485.46Z"/><path class="cls-1" d="M160.11,609.33a12.23,12.23,0,0,1-12.49,12.49,11.51,11.51,0,0,1-8.6-3.58,12.29,12.29,0,0,1-3.48-8.91V482.8A12.25,12.25,0,0,1,148,470.31a11.44,11.44,0,0,1,8.7,3.58,12.46,12.46,0,0,1,3.38,8.91Z"/><path class="cls-1" d="M199.42,499q-7,0-9.83-2.26t-2.86-8v-3.89c0-4,1.05-6.66,3.17-8.09s5.35-2.15,9.72-2.15q7.17,0,10,2.25t2.86,8v3.89c0,4-1,6.65-3.07,8.09S204.06,499,199.42,499Zm12.49,110.35a12.29,12.29,0,0,1-3.48,8.91,12.62,12.62,0,0,1-17.61,0,12.29,12.29,0,0,1-3.48-8.91V524.77a12.28,12.28,0,0,1,3.48-8.9,12.59,12.59,0,0,1,17.61,0,12.28,12.28,0,0,1,3.48,8.9Z"/><path class="cls-1" d="M295.65,510.24q15.15,0,23,6.34a32.23,32.23,0,0,1,10.85,16.9,86.34,86.34,0,0,1,3,23.44v52.41a12.29,12.29,0,0,1-3.48,8.91,12.62,12.62,0,0,1-17.61,0,12.29,12.29,0,0,1-3.48-8.91V556.92a39.77,39.77,0,0,0-1.74-12.18A16.8,16.8,0,0,0,300,536c-3-2.19-7.3-3.28-12.9-3.28A27,27,0,0,0,273.23,536a22.32,22.32,0,0,0-8.6,8.7,24.93,24.93,0,0,0-3,12.18v52.41a12.29,12.29,0,0,1-3.48,8.91,12.62,12.62,0,0,1-17.61,0,12.29,12.29,0,0,1-3.48-8.91V524.77a12.28,12.28,0,0,1,3.48-8.9,12.59,12.59,0,0,1,17.61,0,12.28,12.28,0,0,1,3.48,8.9v8.81l-3.07-.62a40.5,40.5,0,0,1,5.32-7.47A51.08,51.08,0,0,1,272.1,518a41.55,41.55,0,0,1,10.65-5.63A37.47,37.47,0,0,1,295.65,510.24Z"/><path class="cls-1" d="M369.77,499q-7,0-9.83-2.26t-2.87-8v-3.89q0-5.94,3.18-8.09t9.72-2.15q7.17,0,10,2.25t2.87,8v3.89c0,4-1,6.65-3.07,8.09S374.4,499,369.77,499Zm12.48,110.35a12.32,12.32,0,0,1-3.47,8.91,12.62,12.62,0,0,1-17.61,0,12.25,12.25,0,0,1-3.48-8.91V524.77a12.24,12.24,0,0,1,3.48-8.9,12.59,12.59,0,0,1,17.61,0,12.31,12.31,0,0,1,3.47,8.9Z"/><path class="cls-1" d="M456.17,510.24a75.68,75.68,0,0,1,20.37,2.45q8.7,2.46,13.51,6.86a13.81,13.81,0,0,1,4.81,10.55,13.33,13.33,0,0,1-2.45,7.67,8.15,8.15,0,0,1-7.17,3.59,14,14,0,0,1-5.43-.92,14.21,14.21,0,0,1-3.78-2.36,22.25,22.25,0,0,0-3.89-2.66,18.81,18.81,0,0,0-6.25-1.94,40.92,40.92,0,0,0-6.24-.72q-10.44,0-17.71,4.5a30,30,0,0,0-11.16,12.19,38.55,38.55,0,0,0-3.89,17.71,37.39,37.39,0,0,0,4,17.5,31.21,31.21,0,0,0,11.06,12.18,29.54,29.54,0,0,0,16.27,4.51,54.42,54.42,0,0,0,8.81-.62,21.79,21.79,0,0,0,6.14-1.84,36.92,36.92,0,0,0,5.12-3.48q2.25-1.85,6.76-1.84c3.54,0,6.27,1.12,8.19,3.38a12.41,12.41,0,0,1,2.86,8.29q0,5.12-5.73,9.31a45.86,45.86,0,0,1-15.05,6.76,75.74,75.74,0,0,1-20.17,2.56q-16.17,0-28.05-7.47A50,50,0,0,1,408.77,596a63.67,63.67,0,0,1-6.45-28.87q0-16.78,6.86-29.59a50.8,50.8,0,0,1,19-20.06Q440.4,510.23,456.17,510.24Z"/><path class="cls-1" d="M586.38,478.5a12.35,12.35,0,0,1,8.71,3.58,11.78,11.78,0,0,1,3.78,8.91V609.33a11.63,11.63,0,0,1-3.89,8.91,12.89,12.89,0,0,1-9,3.58,12.09,12.09,0,0,1-12.69-12.49V491a12,12,0,0,1,3.68-8.91A13,13,0,0,1,586.38,478.5Zm-.61,59.58h91.32v23.55H585.77Zm91.32-59.58A12.09,12.09,0,0,1,689.78,491V609.33a12.13,12.13,0,0,1-3.58,8.91,12.88,12.88,0,0,1-9.52,3.58,12.27,12.27,0,0,1-8.7-3.58,11.75,11.75,0,0,1-3.79-8.91V491a11.6,11.6,0,0,1,3.89-8.91A12.91,12.91,0,0,1,677.09,478.5Z"/><path class="cls-1" d="M799.73,512.28a11.74,11.74,0,0,1,8.8,3.59,12.28,12.28,0,0,1,3.48,8.9v52q0,21.71-12.08,34.4t-34.8,12.69q-22.74,0-34.71-12.69t-12-34.4v-52a12.28,12.28,0,0,1,3.48-8.9,12.59,12.59,0,0,1,17.61,0,12.28,12.28,0,0,1,3.48,8.9v52q0,12.5,5.53,18.53t16.59,6q11.25,0,16.78-6t5.53-18.53v-52a12.28,12.28,0,0,1,3.48-8.9A11.77,11.77,0,0,1,799.73,512.28Z"/><path class="cls-1" d="M895.34,510.24a46.66,46.66,0,0,1,25.7,7.27,51.53,51.53,0,0,1,18,20q6.66,12.69,6.66,29.48t-6.66,29.59a51.89,51.89,0,0,1-17.81,20.06,44.92,44.92,0,0,1-25.08,7.27,43.79,43.79,0,0,1-15.35-2.66,49.1,49.1,0,0,1-12.6-6.76,38.6,38.6,0,0,1-8.39-8.29q-3-4.2-3-7.06l6.35-2.67v15a12.29,12.29,0,0,1-3.48,8.91,12.75,12.75,0,0,1-17.61.1,12.15,12.15,0,0,1-3.48-9V482.8a12.25,12.25,0,0,1,3.48-8.91,12.62,12.62,0,0,1,17.61,0,12.29,12.29,0,0,1,3.48,8.91v52L859.72,533q0-2.65,2.86-6.45a41.72,41.72,0,0,1,7.78-7.57,44.35,44.35,0,0,1,11.37-6.25A38,38,0,0,1,895.34,510.24Zm-3.07,22.52a27.74,27.74,0,0,0-15.76,4.5A30.64,30.64,0,0,0,866,549.45a39,39,0,0,0-3.79,17.5A39.85,39.85,0,0,0,866,584.46a30.27,30.27,0,0,0,10.55,12.38,27.67,27.67,0,0,0,15.76,4.51,27.19,27.19,0,0,0,15.66-4.51,30.59,30.59,0,0,0,10.45-12.38A40,40,0,0,0,922.16,567a39.08,39.08,0,0,0-3.78-17.5,31,31,0,0,0-10.45-12.19A27.25,27.25,0,0,0,892.27,532.76Z"/><path class="cls-1" d="M13.2,696.43A9.16,9.16,0,0,1,18,697.66a8.88,8.88,0,0,1,3.27,3.39,10.09,10.09,0,0,1,1.2,5,10.44,10.44,0,0,1-1.2,5A9.16,9.16,0,0,1,18,714.58a8.75,8.75,0,0,1-4.77,1.3H3l.24-.48v13.29a1.4,1.4,0,0,1-.44,1,1.37,1.37,0,0,1-1,.43,1.34,1.34,0,0,1-1.06-.43,1.51,1.51,0,0,1-.38-1V697.88a1.37,1.37,0,0,1,.43-1,1.4,1.4,0,0,1,1-.44Zm0,16.66a5.69,5.69,0,0,0,3.27-.94,6.35,6.35,0,0,0,2.19-2.55,8,8,0,0,0,.8-3.59,7.45,7.45,0,0,0-.8-3.49,5.92,5.92,0,0,0-5.46-3.25H3l.24-.43v14.54L3,713.09Z"/><path class="cls-1" d="M65.67,700.14,54,729.22a1.55,1.55,0,0,1-.53.72,1.28,1.28,0,0,1-.77.24,1.31,1.31,0,0,1-1-.36,1.54,1.54,0,0,1-.39-.89,1.34,1.34,0,0,1,0-.58L64,697.25a1.58,1.58,0,0,1,.6-.74,1.56,1.56,0,0,1,.85-.22,1.42,1.42,0,0,1,.84.26,1.74,1.74,0,0,1,.55.7l12.66,31a1.73,1.73,0,0,1,.1.58,1.28,1.28,0,0,1-.44,1,1.51,1.51,0,0,1-1,.36,1.36,1.36,0,0,1-.84-.27,1.71,1.71,0,0,1-.55-.69L64.8,700Zm-8.91,20.27L58,717.57H72.89l.58,2.84Z"/><path class="cls-1" d="M122.13,730.61a15,15,0,0,1-6.35-1.15,18,18,0,0,1-5.15-3.61,1.74,1.74,0,0,1-.41-.48,1.37,1.37,0,0,1-.17-.68,1.5,1.5,0,0,1,.46-1.06,1.39,1.39,0,0,1,1-.48,1.47,1.47,0,0,1,1.06.48,12.82,12.82,0,0,0,4.26,3.08,12.43,12.43,0,0,0,5.13,1.06,11,11,0,0,0,4.11-.72A6.7,6.7,0,0,0,129,725a5,5,0,0,0,1.06-3.13,5.24,5.24,0,0,0-1.21-3.59,9.3,9.3,0,0,0-3.17-2.26,36.31,36.31,0,0,0-4.38-1.61,38.54,38.54,0,0,1-3.76-1.32,14,14,0,0,1-3.17-1.83,7.42,7.42,0,0,1-2.17-2.68,8.64,8.64,0,0,1-.77-3.85,7.82,7.82,0,0,1,1.35-4.52,9,9,0,0,1,3.82-3.11,13.83,13.83,0,0,1,5.76-1.13,15.55,15.55,0,0,1,5.46,1,9.32,9.32,0,0,1,4.16,2.84,2.2,2.2,0,0,1,.73,1.39,1.44,1.44,0,0,1-.49,1,1.5,1.5,0,0,1-1.05.48,1.12,1.12,0,0,1-.82-.34,8.75,8.75,0,0,0-2.07-1.81,10.33,10.33,0,0,0-2.77-1.22,11.87,11.87,0,0,0-7.22.26,6.59,6.59,0,0,0-2.84,2,5.28,5.28,0,0,0,.12,6.45,8.87,8.87,0,0,0,3,2.14c1.25.56,2.58,1.08,4,1.56s2.7.83,4,1.33a14.13,14.13,0,0,1,3.37,1.85,7.78,7.78,0,0,1,2.31,2.8,9.43,9.43,0,0,1,.84,4.23,7.43,7.43,0,0,1-1.4,4.43,9.58,9.58,0,0,1-3.82,3.13A13.61,13.61,0,0,1,122.13,730.61Z"/><path class="cls-1" d="M176.48,730.61a15.09,15.09,0,0,1-6.36-1.15,18.1,18.1,0,0,1-5.15-3.61,1.93,1.93,0,0,1-.41-.48,1.37,1.37,0,0,1-.16-.68,1.53,1.53,0,0,1,.45-1.06,1.41,1.41,0,0,1,1-.48,1.48,1.48,0,0,1,1.06.48,12.82,12.82,0,0,0,4.26,3.08,12.42,12.42,0,0,0,5.12,1.06,11.05,11.05,0,0,0,4.12-.72,6.67,6.67,0,0,0,2.86-2.07,4.9,4.9,0,0,0,1.06-3.13,5.28,5.28,0,0,0-1.2-3.59A9.24,9.24,0,0,0,180,716a35.09,35.09,0,0,0-4.38-1.61,38.33,38.33,0,0,1-3.75-1.32,14.06,14.06,0,0,1-3.18-1.83,7.63,7.63,0,0,1-2.17-2.68,8.78,8.78,0,0,1-.77-3.85,7.82,7.82,0,0,1,1.35-4.52,9.1,9.1,0,0,1,3.83-3.11,13.78,13.78,0,0,1,5.75-1.13,15.51,15.51,0,0,1,5.46,1,9.41,9.41,0,0,1,4.17,2.84,2.18,2.18,0,0,1,.72,1.39,1.42,1.42,0,0,1-.48,1,1.52,1.52,0,0,1-1.06.48,1.15,1.15,0,0,1-.82-.34,8.55,8.55,0,0,0-2.07-1.81,10.05,10.05,0,0,0-2.77-1.22,11.87,11.87,0,0,0-7.22.26,6.59,6.59,0,0,0-2.84,2,5.32,5.32,0,0,0,.12,6.45,8.82,8.82,0,0,0,3,2.14q1.88.84,4,1.56c1.38.39,2.7.83,4,1.33a14.13,14.13,0,0,1,3.37,1.85,7.78,7.78,0,0,1,2.31,2.8,9.43,9.43,0,0,1,.84,4.23,7.49,7.49,0,0,1-1.39,4.43,9.61,9.61,0,0,1-3.83,3.13A13.6,13.6,0,0,1,176.48,730.61Z"/><path class="cls-1" d="M224.57,728.64a1.62,1.62,0,0,1-.51,1.06,1.52,1.52,0,0,1-2.12,0,1.51,1.51,0,0,1-.41-1.06V697.93a1.44,1.44,0,0,1,.44-1.06,1.5,1.5,0,0,1,1.1-.44,1.48,1.48,0,0,1,1,.44,1.42,1.42,0,0,1,.46,1.06Z"/><path class="cls-1" d="M290.9,713.28a19.63,19.63,0,0,1-1.18,7,16.33,16.33,0,0,1-3.35,5.48,15,15,0,0,1-5.12,3.62,17.14,17.14,0,0,1-12.95,0,15,15,0,0,1-5.13-3.62,16.31,16.31,0,0,1-3.34-5.48,21.09,21.09,0,0,1,0-13.91,16.36,16.36,0,0,1,3.34-5.49,15,15,0,0,1,5.13-3.61,17,17,0,0,1,12.95,0,14.94,14.94,0,0,1,5.12,3.61,16.38,16.38,0,0,1,3.35,5.49A19.61,19.61,0,0,1,290.9,713.28Zm-3.08,0a16.31,16.31,0,0,0-1.66-7.53,12.74,12.74,0,0,0-22.77,0,17.93,17.93,0,0,0,0,15.07,12.74,12.74,0,0,0,22.77,0A16.33,16.33,0,0,0,287.82,713.28Z"/><path class="cls-1" d="M349.67,696.43a1.28,1.28,0,0,1,1,.39,1.36,1.36,0,0,1,.36,1v30.81a1.42,1.42,0,0,1-.46,1.13,1.51,1.51,0,0,1-1,.41,1.93,1.93,0,0,1-.63-.12,1.19,1.19,0,0,1-.53-.36L326.9,700.72l.82-.43v28.54a1.25,1.25,0,0,1-.38.92,1.34,1.34,0,0,1-1,.38,1.3,1.3,0,0,1-1-.38,1.32,1.32,0,0,1-.36-.92v-31a1.32,1.32,0,0,1,.43-1.08,1.43,1.43,0,0,1,1-.37,1.89,1.89,0,0,1,.63.12,1.08,1.08,0,0,1,.53.41l21.23,28.6-.48.86V697.78a1.25,1.25,0,0,1,.41-1A1.3,1.3,0,0,1,349.67,696.43Z"/><path class="cls-1" d="M398.63,700.14l-11.7,29.08a1.62,1.62,0,0,1-.53.72,1.28,1.28,0,0,1-.77.24,1.31,1.31,0,0,1-1-.36,1.54,1.54,0,0,1-.39-.89,1.34,1.34,0,0,1,0-.58L397,697.25a1.58,1.58,0,0,1,.6-.74,1.56,1.56,0,0,1,.85-.22,1.42,1.42,0,0,1,.84.26,1.74,1.74,0,0,1,.55.7l12.66,31a1.73,1.73,0,0,1,.1.58,1.28,1.28,0,0,1-.44,1,1.51,1.51,0,0,1-1,.36,1.36,1.36,0,0,1-.84-.27,1.63,1.63,0,0,1-.55-.69l-12-29.27Zm-8.91,20.27,1.21-2.84h14.92l.58,2.84Z"/><path class="cls-1" d="M442,699.18a1.47,1.47,0,0,1-1-.39,1.27,1.27,0,0,1-.43-1,1.23,1.23,0,0,1,.43-1,1.47,1.47,0,0,1,1-.39h22.91a1.44,1.44,0,0,1,1,.39,1.29,1.29,0,0,1,.44,1,1.22,1.22,0,0,1-.44,1,1.51,1.51,0,0,1-1,.36Zm11.46,31a1.44,1.44,0,0,1-1.5-1.44V698h3v30.67a1.43,1.43,0,0,1-.43,1A1.45,1.45,0,0,1,453.41,730.13Z"/><path class="cls-1" d="M501.21,696.43h17.66a1.43,1.43,0,0,1,1,.41,1.38,1.38,0,0,1,.44,1,1.29,1.29,0,0,1-.44,1,1.45,1.45,0,0,1-1,.38H502.31l.48-.81V712l-.52-.62h14.44a1.47,1.47,0,0,1,1.44,1.44,1.28,1.28,0,0,1-.43,1,1.47,1.47,0,0,1-1,.39H502.36l.43-.48v13.86l-.24-.29h16.32a1.37,1.37,0,0,1,1,.43,1.4,1.4,0,0,1,.44,1,1.31,1.31,0,0,1-.44,1,1.49,1.49,0,0,1-1,.38H501.21a1.37,1.37,0,0,1-1-.43,1.4,1.4,0,0,1-.44-1V697.88a1.51,1.51,0,0,1,1.45-1.45Z"/><path class="cls-1" d="M593.39,699.18a1.45,1.45,0,0,1-1-.39,1.27,1.27,0,0,1-.44-1,1.24,1.24,0,0,1,.44-1,1.45,1.45,0,0,1,1-.39H616.3a1.45,1.45,0,0,1,1,.39,1.28,1.28,0,0,1,.43,1,1.21,1.21,0,0,1-.43,1,1.52,1.52,0,0,1-1,.36Zm11.45,31a1.42,1.42,0,0,1-1.08-.43,1.45,1.45,0,0,1-.41-1V698h3v30.67a1.4,1.4,0,0,1-.44,1A1.43,1.43,0,0,1,604.84,730.13Z"/><path class="cls-1" d="M680.28,713.28a19.63,19.63,0,0,1-1.19,7,16.31,16.31,0,0,1-3.34,5.48,15,15,0,0,1-5.13,3.62,17.14,17.14,0,0,1-13,0,15,15,0,0,1-5.12-3.62,16.33,16.33,0,0,1-3.35-5.48,21.09,21.09,0,0,1,0-13.91,16.38,16.38,0,0,1,3.35-5.49,14.94,14.94,0,0,1,5.12-3.61,17,17,0,0,1,13,0,15,15,0,0,1,5.13,3.61,16.36,16.36,0,0,1,3.34,5.49A19.61,19.61,0,0,1,680.28,713.28Zm-3.09,0a16.31,16.31,0,0,0-1.66-7.53,12.74,12.74,0,0,0-22.77,0,17.93,17.93,0,0,0,0,15.07,12.73,12.73,0,0,0,22.77,0A16.33,16.33,0,0,0,677.19,713.28Z"/><path class="cls-1" d="M756.38,696.43a1.46,1.46,0,0,1,1,.44,1.39,1.39,0,0,1,.46,1.06v30.71a1.61,1.61,0,0,1-.5,1.06,1.49,1.49,0,0,1-1,.43,1.4,1.4,0,0,1-1.08-.43,1.47,1.47,0,0,1-.41-1.06V697.93a1.43,1.43,0,0,1,.43-1.06A1.51,1.51,0,0,1,756.38,696.43Zm-.24,15.07H779l0,2.79H756ZM779,696.43a1.45,1.45,0,0,1,1.09.44,1.5,1.5,0,0,1,.41,1.06v30.71a1.77,1.77,0,0,1-.46,1.06,1.42,1.42,0,0,1-1.08.43,1.43,1.43,0,0,1-1.06-.43,1.46,1.46,0,0,1-.44-1.06V697.93a1.42,1.42,0,0,1,.46-1.06A1.54,1.54,0,0,1,779,696.43Z"/><path class="cls-1" d="M818.23,696.43H835.9a1.43,1.43,0,0,1,1,.41,1.37,1.37,0,0,1,.43,1,1.28,1.28,0,0,1-.43,1,1.45,1.45,0,0,1-1,.38H819.34l.48-.81V712l-.53-.62h14.44a1.35,1.35,0,0,1,1,.43,1.4,1.4,0,0,1,.44,1,1.29,1.29,0,0,1-.44,1,1.44,1.44,0,0,1-1,.39H819.39l.43-.48v13.86l-.24-.29H835.9a1.37,1.37,0,0,1,1,.43,1.39,1.39,0,0,1,.43,1,1.3,1.3,0,0,1-.43,1,1.49,1.49,0,0,1-1,.38H818.23a1.47,1.47,0,0,1-1.44-1.44V697.88a1.37,1.37,0,0,1,.43-1A1.4,1.4,0,0,1,818.23,696.43Z"/><path class="cls-1" d="M890.05,727.29a1.43,1.43,0,0,1,1,.41,1.31,1.31,0,0,1,.44,1,1.36,1.36,0,0,1-.44,1,1.43,1.43,0,0,1-1,.41H872.87a1.37,1.37,0,0,1-1-.43,1.45,1.45,0,0,1-.41-1V697.88a1.38,1.38,0,0,1,.44-1,1.52,1.52,0,0,1,2.14,0,1.36,1.36,0,0,1,.46,1v30.23l-.92-.82Z"/><path class="cls-1" d="M937.18,696.43a9.15,9.15,0,0,1,4.76,1.23,9,9,0,0,1,3.28,3.39,10.09,10.09,0,0,1,1.2,5,10.44,10.44,0,0,1-1.2,5,9.26,9.26,0,0,1-3.28,3.54,8.74,8.74,0,0,1-4.76,1.3H927l.24-.48v13.29a1.39,1.39,0,0,1-.43,1,1.37,1.37,0,0,1-1,.43,1.34,1.34,0,0,1-1.06-.43,1.46,1.46,0,0,1-.38-1V697.88a1.49,1.49,0,0,1,1.44-1.45Zm0,16.66a5.69,5.69,0,0,0,3.27-.94,6.35,6.35,0,0,0,2.19-2.55,8,8,0,0,0,.79-3.59,7.45,7.45,0,0,0-.79-3.49,5.92,5.92,0,0,0-5.46-3.25H927l.24-.43v14.54l-.29-.29Z"/><circle class="cls-1" cx="566.85" cy="43.07" r="43.07"/><circle class="cls-1" cx="566.85" cy="326.07" r="43.07"/><path class="cls-1" d="M653,141.5a43.05,43.05,0,0,0-38.77,24.31H558.47a79.7,79.7,0,0,0-96-59l-24.4-42.27a43,43,0,1,0-37.33,21.64h.09l23.89,41.38A79.86,79.86,0,0,0,403,166.11H353.48a43.05,43.05,0,1,0-3.56,43.07h54.72A80,80,0,0,0,429,245.52L400.52,283a43.14,43.14,0,1,0,37.59,21.71l31.2-41.08a81.06,81.06,0,0,0,11.41.9,80,80,0,0,0,76.84-57.81h58.5A43.07,43.07,0,1,0,653,141.5ZM480.72,227.63a43.07,43.07,0,1,1,43.07-43.06A43,43,0,0,1,480.72,227.63Z"/></g></g></svg>